<svg width="195" height="40" viewBox="0 0 195 40" fill="none" xmlns="http://www.w3.org/2000/svg">
<path fill-rule="evenodd" clip-rule="evenodd" d="M8.33337 20.8334H3.33337L20 5.83337L36.6667 20.8334H31.6667V34.1667H21.6667V24.1667H18.3334V34.1667H8.33337V20.8334ZM28.3334 17.8167L20 10.3167L11.6667 17.8167V30.8334H15V20.8334H25V30.8334H28.3334V17.8167Z" fill="#65C51A"/>
<path d="M49.1378 29V15.9091H51.9055V21.3104H57.5241V15.9091H60.2855V29H57.5241V23.5923H51.9055V29H49.1378ZM74.5973 22.4545C74.5973 23.8821 74.3267 25.0966 73.7855 26.098C73.2486 27.0994 72.5156 27.8643 71.5866 28.3928C70.6619 28.9169 69.6222 29.179 68.4673 29.179C67.304 29.179 66.2599 28.9148 65.3352 28.3864C64.4105 27.858 63.6797 27.093 63.1428 26.0916C62.6058 25.0902 62.3374 23.8778 62.3374 22.4545C62.3374 21.027 62.6058 19.8125 63.1428 18.8111C63.6797 17.8097 64.4105 17.0469 65.3352 16.5227C66.2599 15.9943 67.304 15.7301 68.4673 15.7301C69.6222 15.7301 70.6619 15.9943 71.5866 16.5227C72.5156 17.0469 73.2486 17.8097 73.7855 18.8111C74.3267 19.8125 74.5973 21.027 74.5973 22.4545ZM71.7912 22.4545C71.7912 21.5298 71.6527 20.75 71.3757 20.1151C71.103 19.4801 70.7173 18.9986 70.2188 18.6705C69.7202 18.3423 69.1364 18.1783 68.4673 18.1783C67.7983 18.1783 67.2145 18.3423 66.7159 18.6705C66.2173 18.9986 65.8295 19.4801 65.5526 20.1151C65.2798 20.75 65.1435 21.5298 65.1435 22.4545C65.1435 23.3793 65.2798 24.1591 65.5526 24.794C65.8295 25.429 66.2173 25.9105 66.7159 26.2386C67.2145 26.5668 67.7983 26.7308 68.4673 26.7308C69.1364 26.7308 69.7202 26.5668 70.2188 26.2386C70.7173 25.9105 71.103 25.429 71.3757 24.794C71.6527 24.1591 71.7912 23.3793 71.7912 22.4545ZM75.5513 18.1911V15.9091H86.3027V18.1911H82.2949V29H79.5591V18.1911H75.5513ZM88.0733 29V15.9091H96.8944V18.1911H90.8411V21.3104H96.4405V23.5923H90.8411V26.718H96.9199V29H88.0733ZM99.0948 29V15.9091H101.863V26.718H107.475V29H99.0948ZM111.898 29H108.932L113.451 15.9091H117.018L121.531 29H118.565L115.286 18.9006H115.184L111.898 29ZM111.713 23.8544H118.718V26.0149H111.713V23.8544ZM123.107 29V15.9091H128.271C129.26 15.9091 130.104 16.0859 130.803 16.4396C131.506 16.7891 132.04 17.2855 132.407 17.929C132.778 18.5682 132.963 19.3203 132.963 20.1854C132.963 21.0547 132.776 21.8026 132.401 22.429C132.026 23.0511 131.482 23.5284 130.771 23.8608C130.063 24.1932 129.207 24.3594 128.201 24.3594H124.743V22.1349H127.754C128.282 22.1349 128.721 22.0625 129.07 21.9176C129.42 21.7727 129.68 21.5554 129.85 21.2656C130.025 20.9759 130.112 20.6158 130.112 20.1854C130.112 19.7507 130.025 19.3842 129.85 19.0859C129.68 18.7876 129.418 18.5618 129.064 18.4084C128.714 18.2507 128.273 18.1719 127.741 18.1719H125.874V29H123.107ZM130.176 23.0426L133.43 29H130.374L127.191 23.0426H130.176ZM137.687 15.9091V29H134.919V15.9091H137.687ZM142.22 29H139.254L143.774 15.9091H147.34L151.853 29H148.887L145.608 18.9006H145.506L142.22 29ZM142.035 23.8544H149.041V26.0149H142.035V23.8544ZM157.595 29V15.9091H162.76C163.752 15.9091 164.598 16.0987 165.297 16.478C165.996 16.853 166.529 17.375 166.895 18.044C167.266 18.7088 167.451 19.4759 167.451 20.3452C167.451 21.2145 167.264 21.9815 166.889 22.6463C166.514 23.3111 165.971 23.8288 165.259 24.1996C164.551 24.5703 163.695 24.7557 162.689 24.7557H159.397V22.5376H162.242C162.775 22.5376 163.213 22.446 163.559 22.2628C163.908 22.0753 164.168 21.8175 164.338 21.4893C164.513 21.157 164.6 20.7756 164.6 20.3452C164.6 19.9105 164.513 19.5312 164.338 19.2074C164.168 18.8793 163.908 18.6257 163.559 18.4467C163.209 18.2635 162.766 18.1719 162.229 18.1719H160.363V29H157.595ZM169.249 29V15.9091H178.07V18.1911H172.017V21.3104H177.616V23.5923H172.017V26.718H178.096V29H169.249ZM179.772 18.1911V15.9091H190.523V18.1911H186.516V29H183.78V18.1911H179.772Z" fill="white"/>
</svg>
